<?xml version="1.0" encoding="UTF-8"?>
<svg version="1.1" xmlns="http://www.w3.org/2000/svg" width="1024" height="1024">
<path d="M0 0 C337.92 0 675.84 0 1024 0 C1024 337.92 1024 675.84 1024 1024 C686.08 1024 348.16 1024 0 1024 C0 686.08 0 348.16 0 0 Z " fill="#315814" transform="translate(0,0)"/>
<path d="M0 0 C2.36677242 2.91340736 3.83675679 5.67269531 5.19921875 9.1640625 C5.59995605 10.19088135 6.00069336 11.2177002 6.41357422 12.27563477 C7.04416748 13.93357056 7.04416748 13.93357056 7.6875 15.625 C8.12594238 16.77347412 8.56438477 17.92194824 9.01611328 19.10522461 C15.15445031 35.44557123 20.39650311 52.10875765 24.14453125 69.1640625 C24.99294414 72.96836141 25.95383932 76.72865274 26.9375 80.5 C31.10833029 97.00242758 34.08595577 113.74044211 36.625 130.5625 C36.91588501 132.44557861 36.91588501 132.44557861 37.21264648 134.36669922 C41.12021158 161.14204359 42.47883377 187.61608507 42.3225708 214.6383667 C42.30907108 217.80409227 42.31443106 220.96967922 42.31941986 224.1354208 C42.34763068 247.61485117 41.52881447 270.77149382 37.375 293.9375 C37.24750366 294.66236603 37.12000732 295.38723206 36.98864746 296.13406372 C30.74294655 331.45278722 20.87134875 364.68746949 5 397 C4.61489258 397.78938965 4.22978516 398.5787793 3.83300781 399.39208984 C-4.24562136 415.78108293 -14.54302816 430.79699206 -26 445 C-26.79148437 445.99644531 -27.58296875 446.99289062 -28.3984375 448.01953125 C-40.51154505 462.98068934 -54.4043274 476.70815071 -70 488 C-71.1720758 488.86691609 -72.34394769 489.73410791 -73.515625 490.6015625 C-81.09353971 496.15856091 -88.91108325 501.21089405 -97 506 C-98.04027344 506.63421875 -99.08054687 507.2684375 -100.15234375 507.921875 C-129.86914916 525.58941686 -163.50456756 536.22774316 -197 544 C-198.60101562 544.37233765 -198.60101562 544.37233765 -200.234375 544.75219727 C-209.55932938 546.83976402 -218.91194545 548.29029591 -228.375 549.5625 C-229.56722672 549.72549591 -229.56722672 549.72549591 -230.78353882 549.89178467 C-242.28004298 551.45025915 -253.7285393 552.51761041 -265.3125 553.125 C-286.22459301 553.74501559 -286.22459301 553.74501559 -305 562 C-305.93199219 562.64582031 -305.93199219 562.64582031 -306.8828125 563.3046875 C-322.26994737 575.0948298 -324.05517156 597.47318971 -326.59326172 615.17236328 C-327.11612503 618.80729898 -327.68174421 622.43440535 -328.25 626.0625 C-328.50085618 627.70820305 -328.75129572 629.35397037 -329 631 C-333.33762972 632.64736682 -336.9386372 633.25626403 -341.5703125 633.265625 C-342.79621094 633.26820313 -344.02210938 633.27078125 -345.28515625 633.2734375 C-346.55230469 633.26570312 -347.81945312 633.25796875 -349.125 633.25 C-350.39988281 633.25773438 -351.67476563 633.26546875 -352.98828125 633.2734375 C-354.82326172 633.26957031 -354.82326172 633.26957031 -356.6953125 633.265625 C-358.3661792 633.26224121 -358.3661792 633.26224121 -360.07080078 633.25878906 C-362.92331625 633.00677486 -364.58287064 632.48011509 -367 631 C-364.51608693 613.11537995 -361.27158962 595.54490455 -357 578 C-356.71672852 576.83549316 -356.43345703 575.67098633 -356.14160156 574.47119141 C-350.90017156 553.25932691 -344.20787901 532.61280079 -337 512 C-336.75811951 511.30807556 -336.51623901 510.61615112 -336.26702881 509.90325928 C-325.47410877 479.11387693 -313.04945581 449.19104428 -295.15283203 421.77929688 C-294.03756227 420.05797412 -292.95035319 418.32220022 -291.87109375 416.578125 C-282.45912789 401.53284624 -271.81188613 387.24597191 -260 374 C-259.55543457 373.49903809 -259.11086914 372.99807617 -258.65283203 372.48193359 C-252.24881099 365.30513173 -245.53581728 358.44001555 -238.75 351.625 C-238.00548584 350.87581299 -237.26097168 350.12662598 -236.49389648 349.35473633 C-232.37981656 345.25254284 -228.17464425 341.31977784 -223.77294922 337.52783203 C-221.5386575 335.60243991 -219.36428185 333.6149827 -217.1875 331.625 C-212.89202516 327.74795803 -208.46345737 324.0760743 -203.96875 320.43359375 C-198.85152602 316.23881673 -193.84938105 311.9109114 -188.84130859 307.58691406 C-186.99839371 305.99861563 -185.15004026 304.4168421 -183.30078125 302.8359375 C-170.43289552 291.80632116 -158.16046091 280.24444369 -146.125 268.3125 C-145.2572998 267.45785156 -144.38959961 266.60320312 -143.49560547 265.72265625 C-137.56149245 259.79649628 -132.22586991 253.55328658 -127 247 C-125.97623886 245.76784782 -124.9493789 244.53825649 -123.91796875 243.3125 C-108.51408799 224.75407182 -89 197.32244677 -89 172 C-90.64706878 173.9364603 -92.29264742 175.87415841 -93.9375 177.8125 C-94.38673828 178.34037109 -94.83597656 178.86824219 -95.29882812 179.41210938 C-95.76611328 179.96318359 -96.23339844 180.51425781 -96.71484375 181.08203125 C-97.23425537 181.6941748 -97.75366699 182.30631836 -98.28881836 182.93701172 C-99.48902025 184.38396648 -100.66504756 185.85115398 -101.82250977 187.33251953 C-108.27718659 195.51238475 -115.51898442 202.78985545 -122.91137695 210.1171875 C-125.06718873 212.25464882 -127.21479622 214.40009848 -129.36132812 216.546875 C-130.7521324 217.93276527 -132.14339286 219.31819792 -133.53515625 220.703125 C-134.16559341 221.33244934 -134.79603058 221.96177368 -135.4455719 222.61016846 C-139.80892667 226.92796337 -144.34167005 231.00348827 -149 235 C-149.53211594 235.4597522 -150.06423187 235.91950439 -150.61247253 236.39318848 C-157.72897541 242.52482169 -165.00013538 248.42024772 -172.41015625 254.19140625 C-175.44855547 256.55994829 -178.45628431 258.96433056 -181.45678711 261.38061523 C-188.04378261 266.68504879 -194.71102985 271.87067754 -201.43920898 276.99462891 C-212.58359851 285.48354407 -223.7122116 294.00191113 -234.50390625 302.9375 C-236.20920086 304.34656973 -237.92595519 305.74185512 -239.65234375 307.125 C-246.48703848 312.61628989 -252.92267277 318.44465817 -259.31640625 324.43408203 C-261.0219342 326.0204011 -262.74254077 327.58857275 -264.46875 329.15234375 C-269.7288927 333.92769446 -274.83727971 338.68996983 -279.40234375 344.15234375 C-281.13238888 346.15310498 -282.97544742 347.97242461 -284.875 349.8125 C-289.66587162 354.54830413 -293.80026235 359.74200833 -298 365 C-298.91404297 366.11306578 -299.82946131 367.22500323 -300.74609375 368.3359375 C-312.7615692 382.98782217 -323.68618487 398.49219406 -333 415 C-333.47759766 415.8338623 -333.95519531 416.66772461 -334.44726562 417.52685547 C-351.39219815 447.24379349 -363.59670463 479.3216678 -373.89575195 511.88452148 C-375.79233344 517.79233344 -375.79233344 517.79233344 -378 520 C-399.84968093 487.64769466 -412.75297917 451.62462743 -418 413 C-418.1038501 412.28553711 -418.2077002 411.57107422 -418.31469727 410.83496094 C-419.25354628 403.66738605 -419.19925516 396.46755924 -419.1875 389.25 C-419.18689575 388.56503448 -419.1862915 387.88006897 -419.18566895 387.17434692 C-419.15747818 375.35743071 -418.6494304 363.71141529 -417 352 C-416.88172852 351.14245117 -416.76345703 350.28490234 -416.64160156 349.40136719 C-411.31980945 312.52798319 -396.5683942 276.63711097 -374 247 C-373.30261719 246.0821875 -372.60523438 245.164375 -371.88671875 244.21875 C-369.96841301 241.77221514 -367.9983097 239.38159816 -366 237 C-365.58347168 236.4946875 -365.16694336 235.989375 -364.73779297 235.46875 C-354.52165886 223.08821163 -343.55772484 211.22419127 -330.90625 201.2890625 C-328.72105791 199.56793002 -326.5892529 197.82110743 -324.46875 196.0234375 C-280.93898507 159.35919842 -226.27203664 137.76533325 -173.9375 117 C-109.08663138 91.19883617 -38.95695257 60.94698023 0 0 Z " fill="#B5CE62" transform="translate(721,183)"/>
<path d="M0 0 C2.72644156 10.90576622 -3.59101102 23.65511206 -7 34 C-8.08552061 30.74343818 -7.90693622 29.88311156 -7.0625 26.6875 C-6.17373266 23.03699252 -5.80628183 19.77750439 -6 16 C-5.34 16 -4.68 16 -4 16 C-4 13.69 -4 11.38 -4 9 C-3.34 9 -2.68 9 -2 9 C-1.34 6.03 -0.68 3.06 0 0 Z " fill="#264C12" transform="translate(375,713)"/>
<path d="M0 0 C1.04184255 3.38598829 1.23042499 6.46681687 1 10 C0.34 10.66 -0.32 11.32 -1 12 C-1.66 12 -2.32 12 -3 12 C-2.67 14.31 -2.34 16.62 -2 19 C-2.99 19.33 -3.98 19.66 -5 20 C-5 19.01 -5 18.02 -5 17 C-5.99 19.475 -5.99 19.475 -7 22 C-8.1411055 18.57668351 -7.88426112 18.01886281 -6.6015625 14.8046875 C-6.28703125 14.00675781 -5.9725 13.20882812 -5.6484375 12.38671875 C-5.31070312 11.55785156 -4.97296875 10.72898437 -4.625 9.875 C-4.295 9.03839844 -3.965 8.20179688 -3.625 7.33984375 C-1.16178824 1.16178824 -1.16178824 1.16178824 0 0 Z " fill="#C2DA73" transform="translate(399,657)"/>
<path d="M0 0 C0.66 0.33 1.32 0.66 2 1 C-1.61328125 5.6875 -1.61328125 5.6875 -3 7 C-3.99 7 -4.98 7 -6 7 C-5.67 8.32 -5.34 9.64 -5 11 C-5.99 10.67 -6.98 10.34 -8 10 C-11.59706474 11.49877698 -14.44977144 13.02473335 -17 16 C-17.66 15.67 -18.32 15.34 -19 15 C-17.13273883 13.22036112 -15.25692193 11.45152374 -13.375 9.6875 C-12.85292969 9.18798828 -12.33085937 8.68847656 -11.79296875 8.17382812 C-8.42408071 5.03369174 -5.23912042 2.9206572 -1 1 C-0.67 0.67 -0.34 0.34 0 0 Z " fill="#C3D96F" transform="translate(523,500)"/>
<path d="M0 0 C2 2 2 2 2.01171875 4.7578125 C1.90472656 5.86898438 1.79773438 6.98015625 1.6875 8.125 C1.57921875 9.28644531 1.4709375 10.44789063 1.359375 11.64453125 C0.95306121 15.43826548 0.5188223 19.22000893 0 23 C-0.99 23 -1.98 23 -3 23 C-3.16898112 17.64189031 -2.56511422 12.80650828 -1.5 7.5625 C-1.35691406 6.83095703 -1.21382812 6.09941406 -1.06640625 5.34570312 C-0.71678704 3.56264514 -0.35922312 1.78114797 0 0 Z " fill="#234811" transform="translate(759,468)"/>
<path d="M0 0 C0.33 0 0.66 0 1 0 C1.44218238 9.28582994 -0.23226107 17.92981571 -2 27 C-2.33 27 -2.66 27 -3 27 C-3 20.4 -3 13.8 -3 7 C-2.34 6.67 -1.68 6.34 -1 6 C-0.34227572 2.97065509 -0.34227572 2.97065509 0 0 Z " fill="#C0D872" transform="translate(394,785)"/>
<path d="M0 0 C2.4128043 3.61920645 3.17321246 7.20123537 4.125 11.375 C4.39763672 12.50808594 4.39763672 12.50808594 4.67578125 13.6640625 C5.57063954 17.51262597 6.2378791 21.01948977 6 25 C4.25372522 22.38058783 3.61277612 20.96175123 3 18 C2.01 18.33 1.02 18.66 0 19 C-0.20086443 15.28400809 -0.1519437 14.22791555 2 11 C1.34 11 0.68 11 0 11 C0 7.37 0 3.74 0 0 Z " fill="#23460C" transform="translate(305,612)"/>
<path d="M0 0 C0.33 0 0.66 0 1 0 C1.99 6.93 2.98 13.86 4 21 C3.34 21.33 2.68 21.66 2 22 C2 23.98 2 25.96 2 28 C1.67 28 1.34 28 1 28 C0.11504503 18.62895894 -0.1170409 9.40228594 0 0 Z " fill="#1B400C" transform="translate(762,348)"/>
<path d="M0 0 C0.33 0 0.66 0 1 0 C0.47458553 7.7498635 -1.55591476 14.6450086 -4 22 C-5.26977059 18.19068824 -4.52074507 16.18381007 -3.5625 12.3125 C-3.27503906 11.13300781 -2.98757813 9.95351563 -2.69140625 8.73828125 C-2.46324219 7.83464844 -2.23507812 6.93101562 -2 6 C-3.65 7.98 -5.3 9.96 -7 12 C-7 8.21516391 -5.89417485 7.22592069 -3.5625 4.3125 C-2.92441406 3.50425781 -2.28632812 2.69601562 -1.62890625 1.86328125 C-1.09136719 1.24839844 -0.55382812 0.63351562 0 0 Z " fill="#143305" transform="translate(632,353)"/>
<path d="M0 0 C0.33 0 0.66 0 1 0 C1.05392397 2.77109307 1.09363455 5.54113818 1.125 8.3125 C1.15013672 9.49102539 1.15013672 9.49102539 1.17578125 10.69335938 C1.18222656 11.45068359 1.18867188 12.20800781 1.1953125 12.98828125 C1.21102295 14.03302612 1.21102295 14.03302612 1.22705078 15.09887695 C1 17 1 17 -1 20 C-3 6 -3 6 0 0 Z " fill="#244811" transform="translate(396,784)"/>
<path d="M0 0 C0.33 0.99 0.66 1.98 1 3 C0.01 3.33 -0.98 3.66 -2 4 C-2.2475 4.7425 -2.495 5.485 -2.75 6.25 C-4.52401478 10.15283253 -7.44518701 11.76636082 -11 14 C-9.52186113 10.77026656 -7.68253503 8.11002902 -5.5 5.3125 C-4.8915625 4.52488281 -4.283125 3.73726563 -3.65625 2.92578125 C-2 1 -2 1 0 0 Z " fill="#C6DC72" transform="translate(608,414)"/>
<path d="M0 0 C-0.5859375 1.953125 -0.5859375 1.953125 -2 4 C-5.0390625 4.609375 -5.0390625 4.609375 -8.625 4.75 C-10.40777344 4.83507812 -10.40777344 4.83507812 -12.2265625 4.921875 C-13.14179687 4.94765625 -14.05703125 4.9734375 -15 5 C-14 3 -14 3 -11.34765625 1.89453125 C-9.72150391 1.35892578 -9.72150391 1.35892578 -8.0625 0.8125 C-6.44021484 0.26529297 -6.44021484 0.26529297 -4.78515625 -0.29296875 C-2 -1 -2 -1 0 0 Z " fill="#234710" transform="translate(578,712)"/>
<path d="M0 0 C1.98 0.66 3.96 1.32 6 2 C5.34 3.65 4.68 5.3 4 7 C3.34 6.01 2.68 5.02 2 4 C0.02 5.32 -1.96 6.64 -4 8 C-4 4.09161134 -2.49432124 2.88405893 0 0 Z " fill="#C1D76E" transform="translate(451,569)"/>
<path d="M0 0 C0.33 0 0.66 0 1 0 C1.18451025 15.74487472 1.18451025 15.74487472 0 23 C-0.33 23 -0.66 23 -1 23 C-1.33 18.05 -1.66 13.1 -2 8 C-1.67 8 -1.34 8 -1 8 C-0.67 5.36 -0.34 2.72 0 0 Z " fill="#D0E87F" transform="translate(761,431)"/>
<path d="M0 0 C1.00273157 3.2177207 0.99373398 5.7864626 0.625 9.125 C0.53476562 9.99382813 0.44453125 10.86265625 0.3515625 11.7578125 C0 14 0 14 -1 16 C-1.66 16 -2.32 16 -3 16 C-2.57910004 10.39538469 -2.08386889 5.27913453 0 0 Z " fill="#C5DC73" transform="translate(365,759)"/>
<path d="M0 0 C0.66 0.33 1.32 0.66 2 1 C-0.64 3.97 -3.28 6.94 -6 10 C-7.32 9.34 -8.64 8.68 -10 8 C-6.7 5.36 -3.4 2.72 0 0 Z " fill="#C9DE75" transform="translate(680,229)"/>
<path d="M0 0 C1.27351308 2.54702616 0.80191925 3.4282945 0.0625 6.125 C-0.13214844 6.84945312 -0.32679688 7.57390625 -0.52734375 8.3203125 C-0.76130859 9.15175781 -0.76130859 9.15175781 -1 10 C-1.99 10 -2.98 10 -4 10 C-6.18777466 11.9375006 -6.18777466 11.9375006 -8 14 C-6.6744419 10.37723685 -5.05653045 7.36494652 -2.875 4.1875 C-2.33617187 3.39730469 -1.79734375 2.60710938 -1.2421875 1.79296875 C-0.83226562 1.20128906 -0.42234375 0.60960937 0 0 Z " fill="#1C3D0A" transform="translate(716,597)"/>
<path d="M0 0 C0.66 0.33 1.32 0.66 2 1 C-0.97 3.64 -3.94 6.28 -7 9 C-7.66 8.67 -8.32 8.34 -9 8 C-8.34 7.01 -7.68 6.02 -7 5 C-7.66 4.67 -8.32 4.34 -9 4 C-8.2575 3.896875 -7.515 3.79375 -6.75 3.6875 C-3.82985982 2.95746496 -2.26812446 1.93210602 0 0 Z " fill="#20420D" transform="translate(394,379)"/>
<path d="M0 0 C1.32 0.66 2.64 1.32 4 2 C1.03 4.97 -1.94 7.94 -5 11 C-5.66 10.67 -6.32 10.34 -7 10 C-6.175 9.236875 -5.35 8.47375 -4.5 7.6875 C-1.65944803 5.24565858 -1.65944803 5.24565858 -2 2 C-1.34 2 -0.68 2 0 2 C0 1.34 0 0.68 0 0 Z " fill="#1A3C09" transform="translate(565,456)"/>
<path d="M0 0 C1.40907283 2.81814566 0.50872691 4.17277204 -0.4375 7.125 C-0.72496094 8.03507813 -1.01242187 8.94515625 -1.30859375 9.8828125 C-1.53675781 10.58148437 -1.76492188 11.28015625 -2 12 C-2.66 12 -3.32 12 -4 12 C-4.33 12.66 -4.66 13.32 -5 14 C-4.03603575 8.79459302 -3.12319499 4.40086567 0 0 Z " fill="#20430E" transform="translate(366,642)"/>
<path d="M0 0 C0.66 0.33 1.32 0.66 2 1 C0.54462432 1.83848804 -0.91440373 2.67063934 -2.375 3.5 C-3.59316406 4.19609375 -3.59316406 4.19609375 -4.8359375 4.90625 C-7 6 -7 6 -9 6 C-9 6.66 -9 7.32 -9 8 C-9.99 8.33 -10.98 8.66 -12 9 C-12.66 8.34 -13.32 7.68 -14 7 C-11.71296692 5.80274117 -9.42115138 4.61702982 -7.125 3.4375 C-6.14853516 2.92413086 -6.14853516 2.92413086 -5.15234375 2.40039062 C-3.46470143 1.53917109 -1.73420407 0.76313297 0 0 Z " fill="#D1E683" transform="translate(609,273)"/>
<path d="M0 0 C1.21816406 0.03480469 1.21816406 0.03480469 2.4609375 0.0703125 C3.68683594 0.09738281 3.68683594 0.09738281 4.9375 0.125 C5.87722656 0.15980469 5.87722656 0.15980469 6.8359375 0.1953125 C5.876875 0.35 5.876875 0.35 4.8984375 0.5078125 C4.2178125 0.7346875 3.5371875 0.9615625 2.8359375 1.1953125 C2.5059375 2.1853125 2.1759375 3.1753125 1.8359375 4.1953125 C-0.1440625 4.1953125 -2.1240625 4.1953125 -4.1640625 4.1953125 C-4.1640625 1.13098089 -2.96049401 0.2671926 0 0 Z " fill="#2A4F15" transform="translate(498.1640625,730.8046875)"/>
<path d="M0 0 C0.66 0.33 1.32 0.66 2 1 C-3.445 4.96 -3.445 4.96 -9 9 C-9.66 8.67 -10.32 8.34 -11 8 C-8.53410087 3.7934662 -5.43718565 2.7255722 -1 1 C-0.67 0.67 -0.34 0.34 0 0 Z " fill="#CCE17C" transform="translate(646,672)"/>
<path d="M0 0 C0.66 1.32 1.32 2.64 2 4 C3.65 3.67 5.3 3.34 7 3 C6.67 4.65 6.34 6.3 6 8 C3.5625 7.375 3.5625 7.375 1 6 C0.1875 2.875 0.1875 2.875 0 0 Z " fill="#BCD46A" transform="translate(317,650)"/>
<path d="M0 0 C2.1519437 3.22791555 2.20086443 4.28400809 2 8 C2.66 8 3.32 8 4 8 C3.67 10.97 3.34 13.94 3 17 C2.67 17 2.34 17 2 17 C1.66151348 15.10507994 1.32943089 13.20901534 1 11.3125 C0.814375 10.25675781 0.62875 9.20101563 0.4375 8.11328125 C0.04931926 5.35095938 -0.08259976 2.78257957 0 0 Z " fill="#163906" transform="translate(756,304)"/>
<path d="M0 0 C0.99 0.33 1.98 0.66 3 1 C2.34 4.96 1.68 8.92 1 13 C0.67 13 0.34 13 0 13 C0 8.71 0 4.42 0 0 Z " fill="#1F430D" transform="translate(355,790)"/>
<path d="M0 0 C0.66 1.32 1.32 2.64 2 4 C1.34 4 0.68 4 0 4 C0 6.64 0 9.28 0 12 C-0.99 12 -1.98 12 -3 12 C-2.49202991 7.6822542 -1.80317221 3.96697886 0 0 Z " fill="#C7DF79" transform="translate(376,720)"/>
<path d="M0 0 C0.33 0 0.66 0 1 0 C0.67 2.97 0.34 5.94 0 9 C-0.66 9 -1.32 9 -2 9 C-2.33 9.66 -2.66 10.32 -3 11 C-2.53199289 6.94393835 -2.12046792 3.53411321 0 0 Z " fill="#24460F" transform="translate(354,673)"/>
<path d="M0 0 C0.66 0.99 1.32 1.98 2 3 C1.01 4.32 0.02 5.64 -1 7 C-2.32 6.67 -3.64 6.34 -5 6 C-3.35 4.02 -1.7 2.04 0 0 Z " fill="#C5DB71" transform="translate(596,428)"/>
<path d="M0 0 C0.66 0 1.32 0 2 0 C3.625 2 3.625 2 5 4 C3.02 4.66 1.04 5.32 -1 6 C-1.33 4.68 -1.66 3.36 -2 2 C-1.34 2 -0.68 2 0 2 C0 1.34 0 0.68 0 0 Z " fill="#274A10" transform="translate(467,329)"/>
<path d="M0 0 C0.33 0.66 0.66 1.32 1 2 C-1.44580676 5.66871014 -4.12424268 7.06212134 -8 9 C-6.4169423 4.7257442 -3.49431596 2.73468206 0 0 Z " fill="#1E3F0D" transform="translate(416,744)"/>
<path d="M0 0 C2 2 2 2 2 6 C1.38125 5.814375 0.7625 5.62875 0.125 5.4375 C-2.04160178 4.76313824 -2.04160178 4.76313824 -4 6 C-2.84826645 3.53199953 -1.95216435 1.95216435 0 0 Z " fill="#C5DC76" transform="translate(590,435)"/>
<path d="M0 0 C0 3.20395416 -0.74335022 5.09399739 -2 8 C-3.65 8 -5.3 8 -7 8 C-6.02133662 6.85373678 -5.04205413 5.70800212 -4.0625 4.5625 C-3.51722656 3.92441406 -2.97195313 3.28632813 -2.41015625 2.62890625 C-1.63204305 1.73008851 -0.84063472 0.84063472 0 0 Z " fill="#1E410F" transform="translate(461,507)"/>
<path d="M0 0 C1.98 0 3.96 0 6 0 C3.6875 2.5 3.6875 2.5 1 5 C0.01 5 -0.98 5 -2 5 C-1.34 3.35 -0.68 1.7 0 0 Z " fill="#C6DC73" transform="translate(491,476)"/>
<path d="M0 0 C0.66 0.33 1.32 0.66 2 1 C-0.97 3.475 -0.97 3.475 -4 6 C-4.66 5.67 -5.32 5.34 -6 5 C-6 4.34 -6 3.68 -6 3 C-6.33 2.34 -6.66 1.68 -7 1 C-5.5459375 1.0309375 -5.5459375 1.0309375 -4.0625 1.0625 C-1.12534105 1.35618499 -1.12534105 1.35618499 0 0 Z " fill="#C5DB78" transform="translate(544,438)"/>
<path d="M0 0 C2.35333796 4.70667591 2.17102038 6.8693886 2 12 C1.01 11.34 0.02 10.68 -1 10 C-0.67 6.7 -0.34 3.4 0 0 Z " fill="#365D20" transform="translate(759,315)"/>
<path d="M0 0 C2.64 0 5.28 0 8 0 C8.33 0.66 8.66 1.32 9 2 C6.04335481 3.4783226 3.25770263 3.06032783 0 3 C0 2.01 0 1.02 0 0 Z " fill="#375C1F" transform="translate(441,736)"/>
<path d="M0 0 C1 2 1 2 0.375 3.9375 C-1.35198322 6.52797483 -3.2734275 7.56496184 -6 9 C-4.47291037 5.56404834 -2.40072955 2.88087546 0 0 Z " fill="#1B3D0A" transform="translate(419,552)"/>
<path d="M0 0 C0.66 0.33 1.32 0.66 2 1 C-1.32307692 5.8 -1.32307692 5.8 -4.75 6.8125 C-5.4925 6.874375 -6.235 6.93625 -7 7 C-4.66666667 4.66666667 -2.33333333 2.33333333 0 0 Z " fill="#1C3D0C" transform="translate(519,459)"/>
<path d="M0 0 C0.66 0.33 1.32 0.66 2 1 C1.67 1.99 1.34 2.98 1 4 C-1.3125 4.625 -1.3125 4.625 -4 5 C-4.99 4.34 -5.98 3.68 -7 3 C-4.69631264 1.93347808 -2.35981813 0.93578995 0 0 Z " fill="#C7DF79" transform="translate(550,299)"/>
<path d="M0 0 C0.66 1.32 1.32 2.64 2 4 C1.401875 4.28875 0.80375 4.5775 0.1875 4.875 C-2.19327792 6.04742026 -2.19327792 6.04742026 -5 8 C-3.62845496 5.04590299 -2.01136276 2.55991624 0 0 Z " fill="#C7DC75" transform="translate(714,194)"/>
<path d="M0 0 C0.99 0.33 1.98 0.66 3 1 C3 2.32 3 3.64 3 5 C2.01 5 1.02 5 0 5 C-0.33 5.66 -0.66 6.32 -1 7 C-0.67 4.69 -0.34 2.38 0 0 Z " fill="#C1D86D" transform="translate(378,712)"/>
<path d="M0 0 C1.2077558 3.62326739 0.54311128 4.64146369 -1 8 C-1.66 7.67 -2.32 7.34 -3 7 C-2.625 4.0625 -2.625 4.0625 -2 1 C-1.34 0.67 -0.68 0.34 0 0 Z " fill="#CDE27C" transform="translate(345,695)"/>
<path d="M0 0 C1.32 0.33 2.64 0.66 4 1 C4 1.66 4 2.32 4 3 C2.37373596 4.38232443 0.7074998 5.71937515 -1 7 C-1.66 6.67 -2.32 6.34 -3 6 C-2.34 5.34 -1.68 4.68 -1 4 C-0.3574765 1.93125966 -0.3574765 1.93125966 0 0 Z " fill="#C7DD76" transform="translate(661,657)"/>
<path d="M0 0 C0.33 0.99 0.66 1.98 1 3 C-1.64 4.98 -4.28 6.96 -7 9 C-5.04783565 5.09567131 -3.12613393 2.96160056 0 0 Z " fill="#D1E57D" transform="translate(464,554)"/>
<path d="M0 0 C0.66666667 2 1.33333333 4 2 6 C-0.97 5.505 -0.97 5.505 -4 5 C-2.68 3.35 -1.36 1.7 0 0 Z " fill="#C8DF76" transform="translate(479,538)"/>
<path d="M0 0 C0.99 0.33 1.98 0.66 3 1 C1.8141763 4.37503669 0.72426311 6.64722731 -2 9 C-2 7.68 -2 6.36 -2 5 C-1.34 4.67 -0.68 4.34 0 4 C0 2.68 0 1.36 0 0 Z " fill="#22440F" transform="translate(339,435)"/>
<path d="M0 0 C1.98 0 3.96 0 6 0 C4.68 1.65 3.36 3.3 2 5 C1.34 4.67 0.68 4.34 0 4 C0 2.68 0 1.36 0 0 Z " fill="#1E410A" transform="translate(538,480)"/>
<path d="M0 0 C0.66 0 1.32 0 2 0 C2.33 0.99 2.66 1.98 3 3 C1.68 4.32 0.36 5.64 -1 7 C-1.04254356 5.00045254 -1.04080783 2.99958364 -1 1 C-0.67 0.67 -0.34 0.34 0 0 Z " fill="#C3D974" transform="translate(626,355)"/>
</svg>
